# xmcd CD database file
#
# Track frame offsets:
#	150
#	27245
#	52835
#	77585
#	104431
#	127665
#	151433
#	174535
#	194011
#	217733
#	240694
#	270424
#	295418
#	319799
#
# Disc length: 4617 seconds
#
# Revision: 0
# Processed by: cddbd v1.5PL3 Copyright (c) Steve Scherf et al.
# Submitted via: CDex 1.51
#
DISCID=b912070e
DTITLE=HIMESH RESHAMMIYA - Humraaz
DYEAR=2002
DGENRE=Country
TTITLE0=MERI NEEND CHURA LE
TTITLE1=MERE SONE RAB NE
TTITLE2=MERI NAZAR KE SAMNE
TTITLE3=MAIN TUJHKO YAAD AAOONGA
TTITLE4=MERE DIL PE HAATH RAKH DO
TTITLE5=SANU TERE NAAL
TTITLE6=MAIN TERE KHWABON MEIN
TTITLE7=NEED AATI HAI
TTITLE8=DIL NE KAR LIYA
TTITLE9=TUNE ZINDAGI MEN
TTITLE10=PYAAR KAR
TTITLE11=BARDAASHT
TTITLE12=SANAM MERE HUMRAAZ
TTITLE13=LIFE BAN JAAYEGI
EXTD=YEAR: 2002
EXTT0=
EXTT1=
EXTT2=
EXTT3=
EXTT4=
EXTT5=
EXTT6=
EXTT7=
EXTT8=
EXTT9=
EXTT10=
EXTT11=
EXTT12=
EXTT13=
PLAYORDER=
